{
 "cells": [
  {
   "cell_type": "markdown",
   "id": "7d30043b",
   "metadata": {},
   "source": [
    "## VMAF"
   ]
  },
  {
   "cell_type": "code",
   "execution_count": 5,
   "id": "34644f41",
   "metadata": {
    "scrolled": false
   },
   "outputs": [
    {
     "name": "stderr",
     "output_type": "stream",
     "text": [
      "ffmpeg version N-106635-g83e1a1de88 Copyright (c) 2000-2022 the FFmpeg developers\n",
      "  built with gcc 9 (Ubuntu 9.4.0-1ubuntu1~20.04.1)\n",
      "  configuration: --prefix=/home/ubuntu/ffmpeg_build --pkg-config-flags=--static --extra-cflags=-I/home/ubuntu/ffmpeg_build/include --extra-ldflags=-L/home/ubuntu/ffmpeg_build/lib --extra-libs='-lpthread -lm' --ld=g++ --bindir=/home/ubuntu/bin --enable-gpl --enable-gnutls --enable-libaom --enable-libass --enable-libfdk-aac --enable-libfreetype --enable-libmp3lame --enable-libopus --enable-libsvtav1 --enable-libdav1d --enable-libvorbis --enable-libvpx --enable-libx264 --enable-libx265 --enable-libvmaf --enable-version3 --enable-nonfree\n",
      "  libavutil      57. 24.101 / 57. 24.101\n",
      "  libavcodec     59. 26.100 / 59. 26.100\n",
      "  libavformat    59. 22.100 / 59. 22.100\n",
      "  libavdevice    59.  6.100 / 59.  6.100\n",
      "  libavfilter     8. 33.100 /  8. 33.100\n",
      "  libswscale      6.  6.100 /  6.  6.100\n",
      "  libswresample   4.  6.100 /  4.  6.100\n",
      "  libpostproc    56.  5.100 / 56.  5.100\n",
      "[rawvideo @ 0x555739db15c0] Estimating duration from bitrate, this may be inaccurate\n",
      "Input #0, rawvideo, from 'test_vids/refs/waterfall.yuv':\n",
      "  Duration: 00:00:30.00, start: 0.000000, bitrate: 4976640 kb/s\n",
      "  Stream #0:0: Video: rawvideo (I420 / 0x30323449), yuv420p, 3840x2160, 4976640 kb/s, 50 tbr, 50 tbn\n",
      "Input #1, mov,mp4,m4a,3gp,3g2,mj2, from 'test_vids/encoded/waterfall/waterfallAVC_cf17.mp4':\n",
      "  Metadata:\n",
      "    major_brand     : isom\n",
      "    minor_version   : 512\n",
      "    compatible_brands: isomiso2avc1mp41\n",
      "    encoder         : Lavf59.22.100\n",
      "  Duration: 00:00:30.00, start: 0.000000, bitrate: 182180 kb/s\n",
      "  Stream #1:0[0x1](und): Video: h264 (High) (avc1 / 0x31637661), yuv420p(progressive), 3840x2160, 182174 kb/s, 50 fps, 50 tbr, 12800 tbn (default)\n",
      "    Metadata:\n",
      "      handler_name    : VideoHandler\n",
      "      vendor_id       : [0][0][0][0]\n",
      "Stream mapping:\n",
      "  Stream #0:0 (rawvideo) -> setpts:default\n",
      "  Stream #1:0 (h264) -> scale:default\n",
      "  libvmaf:default -> Stream #0:0 (wrapped_avframe)\n",
      "Press [q] to stop, [?] for help\n",
      "Output #0, null, to 'pipe:':\n",
      "  Metadata:\n",
      "    encoder         : Lavf59.22.100\n",
      "  Stream #0:0: Video: wrapped_avframe, yuv420p(progressive), 3840x2160, q=2-31, 200 kb/s, 50 fps, 50 tbn\n",
      "    Metadata:\n",
      "      encoder         : Lavc59.26.100 wrapped_avframe\n",
      "frame= 1500 fps=2.4 q=-0.0 Lsize=N/A time=00:00:30.00 bitrate=N/A speed=0.0487x    \n",
      "video:691kB audio:0kB subtitle:0kB other streams:0kB global headers:0kB muxing overhead: unknown\n",
      "[Parsed_libvmaf_3 @ 0x55573bf436c0] VMAF score: 99.938809\n",
      "ffmpeg version N-106635-g83e1a1de88 Copyright (c) 2000-2022 the FFmpeg developers\n",
      "  built with gcc 9 (Ubuntu 9.4.0-1ubuntu1~20.04.1)\n",
      "  configuration: --prefix=/home/ubuntu/ffmpeg_build --pkg-config-flags=--static --extra-cflags=-I/home/ubuntu/ffmpeg_build/include --extra-ldflags=-L/home/ubuntu/ffmpeg_build/lib --extra-libs='-lpthread -lm' --ld=g++ --bindir=/home/ubuntu/bin --enable-gpl --enable-gnutls --enable-libaom --enable-libass --enable-libfdk-aac --enable-libfreetype --enable-libmp3lame --enable-libopus --enable-libsvtav1 --enable-libdav1d --enable-libvorbis --enable-libvpx --enable-libx264 --enable-libx265 --enable-libvmaf --enable-version3 --enable-nonfree\n",
      "  libavutil      57. 24.101 / 57. 24.101\n",
      "  libavcodec     59. 26.100 / 59. 26.100\n",
      "  libavformat    59. 22.100 / 59. 22.100\n",
      "  libavdevice    59.  6.100 / 59.  6.100\n",
      "  libavfilter     8. 33.100 /  8. 33.100\n",
      "  libswscale      6.  6.100 /  6.  6.100\n",
      "  libswresample   4.  6.100 /  4.  6.100\n",
      "  libpostproc    56.  5.100 / 56.  5.100\n",
      "[rawvideo @ 0x557bf3e1f5c0] Estimating duration from bitrate, this may be inaccurate\n",
      "Input #0, rawvideo, from 'test_vids/refs/waterfall.yuv':\n",
      "  Duration: 00:00:30.00, start: 0.000000, bitrate: 4976640 kb/s\n",
      "  Stream #0:0: Video: rawvideo (I420 / 0x30323449), yuv420p, 3840x2160, 4976640 kb/s, 50 tbr, 50 tbn\n",
      "Input #1, mov,mp4,m4a,3gp,3g2,mj2, from 'test_vids/encoded/waterfall/waterfallAVC_cf10.mp4':\n",
      "  Metadata:\n",
      "    major_brand     : isom\n",
      "    minor_version   : 512\n",
      "    compatible_brands: isomiso2avc1mp41\n",
      "    encoder         : Lavf59.22.100\n",
      "  Duration: 00:00:30.00, start: 0.000000, bitrate: 387634 kb/s\n",
      "  Stream #1:0[0x1](und): Video: h264 (High) (avc1 / 0x31637661), yuv420p(progressive), 3840x2160, 387628 kb/s, 50 fps, 50 tbr, 12800 tbn (default)\n",
      "    Metadata:\n",
      "      handler_name    : VideoHandler\n",
      "      vendor_id       : [0][0][0][0]\n",
      "Stream mapping:\n",
      "  Stream #0:0 (rawvideo) -> setpts:default\n",
      "  Stream #1:0 (h264) -> scale:default\n",
      "  libvmaf:default -> Stream #0:0 (wrapped_avframe)\n",
      "Press [q] to stop, [?] for help\n",
      "Output #0, null, to 'pipe:':\n",
      "  Metadata:\n",
      "    encoder         : Lavf59.22.100\n",
      "  Stream #0:0: Video: wrapped_avframe, yuv420p(progressive), 3840x2160, q=2-31, 200 kb/s, 50 fps, 50 tbn\n",
      "    Metadata:\n",
      "      encoder         : Lavc59.26.100 wrapped_avframe\n",
      "frame= 1500 fps=2.4 q=-0.0 Lsize=N/A time=00:00:30.00 bitrate=N/A speed=0.0486x    \n",
      "video:691kB audio:0kB subtitle:0kB other streams:0kB global headers:0kB muxing overhead: unknown\n",
      "[Parsed_libvmaf_3 @ 0x557bf5fb1600] VMAF score: 99.997133\n",
      "ffmpeg version N-106635-g83e1a1de88 Copyright (c) 2000-2022 the FFmpeg developers\n",
      "  built with gcc 9 (Ubuntu 9.4.0-1ubuntu1~20.04.1)\n",
      "  configuration: --prefix=/home/ubuntu/ffmpeg_build --pkg-config-flags=--static --extra-cflags=-I/home/ubuntu/ffmpeg_build/include --extra-ldflags=-L/home/ubuntu/ffmpeg_build/lib --extra-libs='-lpthread -lm' --ld=g++ --bindir=/home/ubuntu/bin --enable-gpl --enable-gnutls --enable-libaom --enable-libass --enable-libfdk-aac --enable-libfreetype --enable-libmp3lame --enable-libopus --enable-libsvtav1 --enable-libdav1d --enable-libvorbis --enable-libvpx --enable-libx264 --enable-libx265 --enable-libvmaf --enable-version3 --enable-nonfree\n",
      "  libavutil      57. 24.101 / 57. 24.101\n",
      "  libavcodec     59. 26.100 / 59. 26.100\n",
      "  libavformat    59. 22.100 / 59. 22.100\n",
      "  libavdevice    59.  6.100 / 59.  6.100\n",
      "  libavfilter     8. 33.100 /  8. 33.100\n",
      "  libswscale      6.  6.100 /  6.  6.100\n",
      "  libswresample   4.  6.100 /  4.  6.100\n",
      "  libpostproc    56.  5.100 / 56.  5.100\n",
      "[rawvideo @ 0x563c6f35c5c0] Estimating duration from bitrate, this may be inaccurate\n",
      "Input #0, rawvideo, from 'test_vids/refs/waterfall.yuv':\n",
      "  Duration: 00:00:30.00, start: 0.000000, bitrate: 4976640 kb/s\n",
      "  Stream #0:0: Video: rawvideo (I420 / 0x30323449), yuv420p, 3840x2160, 4976640 kb/s, 50 tbr, 50 tbn\n",
      "Input #1, mov,mp4,m4a,3gp,3g2,mj2, from 'test_vids/encoded/waterfall/waterfallAVC_cf20.mp4':\n",
      "  Metadata:\n",
      "    major_brand     : isom\n",
      "    minor_version   : 512\n",
      "    compatible_brands: isomiso2avc1mp41\n",
      "    encoder         : Lavf59.22.100\n",
      "  Duration: 00:00:30.00, start: 0.000000, bitrate: 129079 kb/s\n",
      "  Stream #1:0[0x1](und): Video: h264 (High) (avc1 / 0x31637661), yuv420p(progressive), 3840x2160, 129073 kb/s, 50 fps, 50 tbr, 12800 tbn (default)\n",
      "    Metadata:\n",
      "      handler_name    : VideoHandler\n",
      "      vendor_id       : [0][0][0][0]\n",
      "Stream mapping:\n",
      "  Stream #0:0 (rawvideo) -> setpts:default\n",
      "  Stream #1:0 (h264) -> scale:default\n",
      "  libvmaf:default -> Stream #0:0 (wrapped_avframe)\n",
      "Press [q] to stop, [?] for help\n",
      "Output #0, null, to 'pipe:':\n",
      "  Metadata:\n",
      "    encoder         : Lavf59.22.100\n",
      "  Stream #0:0: Video: wrapped_avframe, yuv420p(progressive), 3840x2160, q=2-31, 200 kb/s, 50 fps, 50 tbn\n",
      "    Metadata:\n",
      "      encoder         : Lavc59.26.100 wrapped_avframe\n",
      "frame= 1500 fps=2.4 q=-0.0 Lsize=N/A time=00:00:30.00 bitrate=N/A speed=0.0475x    \n",
      "video:691kB audio:0kB subtitle:0kB other streams:0kB global headers:0kB muxing overhead: unknown\n",
      "[Parsed_libvmaf_3 @ 0x563c714eeac0] VMAF score: 96.701726\n",
      "ffmpeg version N-106635-g83e1a1de88 Copyright (c) 2000-2022 the FFmpeg developers\n",
      "  built with gcc 9 (Ubuntu 9.4.0-1ubuntu1~20.04.1)\n",
      "  configuration: --prefix=/home/ubuntu/ffmpeg_build --pkg-config-flags=--static --extra-cflags=-I/home/ubuntu/ffmpeg_build/include --extra-ldflags=-L/home/ubuntu/ffmpeg_build/lib --extra-libs='-lpthread -lm' --ld=g++ --bindir=/home/ubuntu/bin --enable-gpl --enable-gnutls --enable-libaom --enable-libass --enable-libfdk-aac --enable-libfreetype --enable-libmp3lame --enable-libopus --enable-libsvtav1 --enable-libdav1d --enable-libvorbis --enable-libvpx --enable-libx264 --enable-libx265 --enable-libvmaf --enable-version3 --enable-nonfree\n",
      "  libavutil      57. 24.101 / 57. 24.101\n",
      "  libavcodec     59. 26.100 / 59. 26.100\n",
      "  libavformat    59. 22.100 / 59. 22.100\n",
      "  libavdevice    59.  6.100 / 59.  6.100\n",
      "  libavfilter     8. 33.100 /  8. 33.100\n",
      "  libswscale      6.  6.100 /  6.  6.100\n",
      "  libswresample   4.  6.100 /  4.  6.100\n",
      "  libpostproc    56.  5.100 / 56.  5.100\n",
      "[rawvideo @ 0x5583462ca5c0] Estimating duration from bitrate, this may be inaccurate\n",
      "Input #0, rawvideo, from 'test_vids/refs/waterfall.yuv':\n",
      "  Duration: 00:00:30.00, start: 0.000000, bitrate: 4976640 kb/s\n",
      "  Stream #0:0: Video: rawvideo (I420 / 0x30323449), yuv420p, 3840x2160, 4976640 kb/s, 50 tbr, 50 tbn\n",
      "Input #1, mov,mp4,m4a,3gp,3g2,mj2, from 'test_vids/encoded/waterfall/waterfallAVC_cf32.mp4':\n",
      "  Metadata:\n",
      "    major_brand     : isom\n",
      "    minor_version   : 512\n",
      "    compatible_brands: isomiso2avc1mp41\n",
      "    encoder         : Lavf59.22.100\n",
      "  Duration: 00:00:30.00, start: 0.000000, bitrate: 23547 kb/s\n",
      "  Stream #1:0[0x1](und): Video: h264 (High) (avc1 / 0x31637661), yuv420p(progressive), 3840x2160, 23541 kb/s, 50 fps, 50 tbr, 12800 tbn (default)\n",
      "    Metadata:\n",
      "      handler_name    : VideoHandler\n",
      "      vendor_id       : [0][0][0][0]\n",
      "Stream mapping:\n",
      "  Stream #0:0 (rawvideo) -> setpts:default\n",
      "  Stream #1:0 (h264) -> scale:default\n",
      "  libvmaf:default -> Stream #0:0 (wrapped_avframe)\n",
      "Press [q] to stop, [?] for help\n"
     ]
    },
    {
     "name": "stderr",
     "output_type": "stream",
     "text": [
      "Output #0, null, to 'pipe:':\n",
      "  Metadata:\n",
      "    encoder         : Lavf59.22.100\n",
      "  Stream #0:0: Video: wrapped_avframe, yuv420p(progressive), 3840x2160, q=2-31, 200 kb/s, 50 fps, 50 tbn\n",
      "    Metadata:\n",
      "      encoder         : Lavc59.26.100 wrapped_avframe\n",
      "frame= 1500 fps=2.4 q=-0.0 Lsize=N/A time=00:00:30.00 bitrate=N/A speed=0.0484x    \n",
      "video:691kB audio:0kB subtitle:0kB other streams:0kB global headers:0kB muxing overhead: unknown\n",
      "[Parsed_libvmaf_3 @ 0x55834845cc40] VMAF score: 56.491833\n",
      "ffmpeg version N-106635-g83e1a1de88 Copyright (c) 2000-2022 the FFmpeg developers\n",
      "  built with gcc 9 (Ubuntu 9.4.0-1ubuntu1~20.04.1)\n",
      "  configuration: --prefix=/home/ubuntu/ffmpeg_build --pkg-config-flags=--static --extra-cflags=-I/home/ubuntu/ffmpeg_build/include --extra-ldflags=-L/home/ubuntu/ffmpeg_build/lib --extra-libs='-lpthread -lm' --ld=g++ --bindir=/home/ubuntu/bin --enable-gpl --enable-gnutls --enable-libaom --enable-libass --enable-libfdk-aac --enable-libfreetype --enable-libmp3lame --enable-libopus --enable-libsvtav1 --enable-libdav1d --enable-libvorbis --enable-libvpx --enable-libx264 --enable-libx265 --enable-libvmaf --enable-version3 --enable-nonfree\n",
      "  libavutil      57. 24.101 / 57. 24.101\n",
      "  libavcodec     59. 26.100 / 59. 26.100\n",
      "  libavformat    59. 22.100 / 59. 22.100\n",
      "  libavdevice    59.  6.100 / 59.  6.100\n",
      "  libavfilter     8. 33.100 /  8. 33.100\n",
      "  libswscale      6.  6.100 /  6.  6.100\n",
      "  libswresample   4.  6.100 /  4.  6.100\n",
      "  libpostproc    56.  5.100 / 56.  5.100\n",
      "[rawvideo @ 0x55b6650595c0] Estimating duration from bitrate, this may be inaccurate\n",
      "Input #0, rawvideo, from 'test_vids/refs/waterfall.yuv':\n",
      "  Duration: 00:00:30.00, start: 0.000000, bitrate: 4976640 kb/s\n",
      "  Stream #0:0: Video: rawvideo (I420 / 0x30323449), yuv420p, 3840x2160, 4976640 kb/s, 50 tbr, 50 tbn\n",
      "Input #1, mov,mp4,m4a,3gp,3g2,mj2, from 'test_vids/encoded/waterfall/waterfallAVC_cf35.mp4':\n",
      "  Metadata:\n",
      "    major_brand     : isom\n",
      "    minor_version   : 512\n",
      "    compatible_brands: isomiso2avc1mp41\n",
      "    encoder         : Lavf59.22.100\n",
      "  Duration: 00:00:30.00, start: 0.000000, bitrate: 14417 kb/s\n",
      "  Stream #1:0[0x1](und): Video: h264 (High) (avc1 / 0x31637661), yuv420p(progressive), 3840x2160, 14411 kb/s, 50 fps, 50 tbr, 12800 tbn (default)\n",
      "    Metadata:\n",
      "      handler_name    : VideoHandler\n",
      "      vendor_id       : [0][0][0][0]\n",
      "Stream mapping:\n",
      "  Stream #0:0 (rawvideo) -> setpts:default\n",
      "  Stream #1:0 (h264) -> scale:default\n",
      "  libvmaf:default -> Stream #0:0 (wrapped_avframe)\n",
      "Press [q] to stop, [?] for help\n",
      "Output #0, null, to 'pipe:':\n",
      "  Metadata:\n",
      "    encoder         : Lavf59.22.100\n",
      "  Stream #0:0: Video: wrapped_avframe, yuv420p(progressive), 3840x2160, q=2-31, 200 kb/s, 50 fps, 50 tbn\n",
      "    Metadata:\n",
      "      encoder         : Lavc59.26.100 wrapped_avframe\n",
      "frame= 1500 fps=2.4 q=-0.0 Lsize=N/A time=00:00:30.00 bitrate=N/A speed=0.0475x    \n",
      "video:691kB audio:0kB subtitle:0kB other streams:0kB global headers:0kB muxing overhead: unknown\n",
      "[Parsed_libvmaf_3 @ 0x55b6671ebc00] VMAF score: 41.473261\n",
      "ffmpeg version N-106635-g83e1a1de88 Copyright (c) 2000-2022 the FFmpeg developers\n",
      "  built with gcc 9 (Ubuntu 9.4.0-1ubuntu1~20.04.1)\n",
      "  configuration: --prefix=/home/ubuntu/ffmpeg_build --pkg-config-flags=--static --extra-cflags=-I/home/ubuntu/ffmpeg_build/include --extra-ldflags=-L/home/ubuntu/ffmpeg_build/lib --extra-libs='-lpthread -lm' --ld=g++ --bindir=/home/ubuntu/bin --enable-gpl --enable-gnutls --enable-libaom --enable-libass --enable-libfdk-aac --enable-libfreetype --enable-libmp3lame --enable-libopus --enable-libsvtav1 --enable-libdav1d --enable-libvorbis --enable-libvpx --enable-libx264 --enable-libx265 --enable-libvmaf --enable-version3 --enable-nonfree\n",
      "  libavutil      57. 24.101 / 57. 24.101\n",
      "  libavcodec     59. 26.100 / 59. 26.100\n",
      "  libavformat    59. 22.100 / 59. 22.100\n",
      "  libavdevice    59.  6.100 / 59.  6.100\n",
      "  libavfilter     8. 33.100 /  8. 33.100\n",
      "  libswscale      6.  6.100 /  6.  6.100\n",
      "  libswresample   4.  6.100 /  4.  6.100\n",
      "  libpostproc    56.  5.100 / 56.  5.100\n",
      "[rawvideo @ 0x55b9c86695c0] Estimating duration from bitrate, this may be inaccurate\n",
      "Input #0, rawvideo, from 'test_vids/refs/waterfall.yuv':\n",
      "  Duration: 00:00:30.00, start: 0.000000, bitrate: 4976640 kb/s\n",
      "  Stream #0:0: Video: rawvideo (I420 / 0x30323449), yuv420p, 3840x2160, 4976640 kb/s, 50 tbr, 50 tbn\n",
      "Input #1, mov,mp4,m4a,3gp,3g2,mj2, from 'test_vids/encoded/waterfall/waterfallAVC_cf26.mp4':\n",
      "  Metadata:\n",
      "    major_brand     : isom\n",
      "    minor_version   : 512\n",
      "    compatible_brands: isomiso2avc1mp41\n",
      "    encoder         : Lavf59.22.100\n",
      "  Duration: 00:00:30.00, start: 0.000000, bitrate: 59343 kb/s\n",
      "  Stream #1:0[0x1](und): Video: h264 (High) (avc1 / 0x31637661), yuv420p(progressive), 3840x2160, 59337 kb/s, 50 fps, 50 tbr, 12800 tbn (default)\n",
      "    Metadata:\n",
      "      handler_name    : VideoHandler\n",
      "      vendor_id       : [0][0][0][0]\n",
      "Stream mapping:\n",
      "  Stream #0:0 (rawvideo) -> setpts:default\n",
      "  Stream #1:0 (h264) -> scale:default\n",
      "  libvmaf:default -> Stream #0:0 (wrapped_avframe)\n",
      "Press [q] to stop, [?] for help\n",
      "Output #0, null, to 'pipe:':\n",
      "  Metadata:\n",
      "    encoder         : Lavf59.22.100\n",
      "  Stream #0:0: Video: wrapped_avframe, yuv420p(progressive), 3840x2160, q=2-31, 200 kb/s, 50 fps, 50 tbn\n",
      "    Metadata:\n",
      "      encoder         : Lavc59.26.100 wrapped_avframe\n",
      "frame= 1500 fps=2.4 q=-0.0 Lsize=N/A time=00:00:30.00 bitrate=N/A speed=0.0475x    \n",
      "video:691kB audio:0kB subtitle:0kB other streams:0kB global headers:0kB muxing overhead: unknown\n",
      "[Parsed_libvmaf_3 @ 0x55b9ca7fbec0] VMAF score: 82.348099\n",
      "ffmpeg version N-106635-g83e1a1de88 Copyright (c) 2000-2022 the FFmpeg developers\n",
      "  built with gcc 9 (Ubuntu 9.4.0-1ubuntu1~20.04.1)\n",
      "  configuration: --prefix=/home/ubuntu/ffmpeg_build --pkg-config-flags=--static --extra-cflags=-I/home/ubuntu/ffmpeg_build/include --extra-ldflags=-L/home/ubuntu/ffmpeg_build/lib --extra-libs='-lpthread -lm' --ld=g++ --bindir=/home/ubuntu/bin --enable-gpl --enable-gnutls --enable-libaom --enable-libass --enable-libfdk-aac --enable-libfreetype --enable-libmp3lame --enable-libopus --enable-libsvtav1 --enable-libdav1d --enable-libvorbis --enable-libvpx --enable-libx264 --enable-libx265 --enable-libvmaf --enable-version3 --enable-nonfree\n",
      "  libavutil      57. 24.101 / 57. 24.101\n",
      "  libavcodec     59. 26.100 / 59. 26.100\n",
      "  libavformat    59. 22.100 / 59. 22.100\n",
      "  libavdevice    59.  6.100 / 59.  6.100\n",
      "  libavfilter     8. 33.100 /  8. 33.100\n",
      "  libswscale      6.  6.100 /  6.  6.100\n",
      "  libswresample   4.  6.100 /  4.  6.100\n",
      "  libpostproc    56.  5.100 / 56.  5.100\n",
      "[rawvideo @ 0x556f2669c5c0] Estimating duration from bitrate, this may be inaccurate\n",
      "Input #0, rawvideo, from 'test_vids/refs/waterfall.yuv':\n",
      "  Duration: 00:00:30.00, start: 0.000000, bitrate: 4976640 kb/s\n",
      "  Stream #0:0: Video: rawvideo (I420 / 0x30323449), yuv420p, 3840x2160, 4976640 kb/s, 50 tbr, 50 tbn\n",
      "Input #1, mov,mp4,m4a,3gp,3g2,mj2, from 'test_vids/encoded/waterfall/waterfallAVC_cf40.mp4':\n",
      "  Metadata:\n",
      "    major_brand     : isom\n",
      "    minor_version   : 512\n",
      "    compatible_brands: isomiso2avc1mp41\n",
      "    encoder         : Lavf59.22.100\n",
      "  Duration: 00:00:30.00, start: 0.000000, bitrate: 6328 kb/s\n",
      "  Stream #1:0[0x1](und): Video: h264 (High) (avc1 / 0x31637661), yuv420p(progressive), 3840x2160, 6323 kb/s, 50 fps, 50 tbr, 12800 tbn (default)\n",
      "    Metadata:\n",
      "      handler_name    : VideoHandler\n",
      "      vendor_id       : [0][0][0][0]\n",
      "Stream mapping:\n",
      "  Stream #0:0 (rawvideo) -> setpts:default\n",
      "  Stream #1:0 (h264) -> scale:default\n",
      "  libvmaf:default -> Stream #0:0 (wrapped_avframe)\n",
      "Press [q] to stop, [?] for help\n",
      "Output #0, null, to 'pipe:':\n",
      "  Metadata:\n",
      "    encoder         : Lavf59.22.100\n",
      "  Stream #0:0: Video: wrapped_avframe, yuv420p(progressive), 3840x2160, q=2-31, 200 kb/s, 50 fps, 50 tbn\n",
      "    Metadata:\n",
      "      encoder         : Lavc59.26.100 wrapped_avframe\n",
      "frame= 1500 fps=2.4 q=-0.0 Lsize=N/A time=00:00:30.00 bitrate=N/A speed=0.0481x    \n",
      "video:691kB audio:0kB subtitle:0kB other streams:0kB global headers:0kB muxing overhead: unknown\n",
      "[Parsed_libvmaf_3 @ 0x556f266ea780] VMAF score: 20.550115\n",
      "ffmpeg version N-106635-g83e1a1de88 Copyright (c) 2000-2022 the FFmpeg developers\n",
      "  built with gcc 9 (Ubuntu 9.4.0-1ubuntu1~20.04.1)\n",
      "  configuration: --prefix=/home/ubuntu/ffmpeg_build --pkg-config-flags=--static --extra-cflags=-I/home/ubuntu/ffmpeg_build/include --extra-ldflags=-L/home/ubuntu/ffmpeg_build/lib --extra-libs='-lpthread -lm' --ld=g++ --bindir=/home/ubuntu/bin --enable-gpl --enable-gnutls --enable-libaom --enable-libass --enable-libfdk-aac --enable-libfreetype --enable-libmp3lame --enable-libopus --enable-libsvtav1 --enable-libdav1d --enable-libvorbis --enable-libvpx --enable-libx264 --enable-libx265 --enable-libvmaf --enable-version3 --enable-nonfree\n",
      "  libavutil      57. 24.101 / 57. 24.101\n",
      "  libavcodec     59. 26.100 / 59. 26.100\n",
      "  libavformat    59. 22.100 / 59. 22.100\n",
      "  libavdevice    59.  6.100 / 59.  6.100\n",
      "  libavfilter     8. 33.100 /  8. 33.100\n",
      "  libswscale      6.  6.100 /  6.  6.100\n",
      "  libswresample   4.  6.100 /  4.  6.100\n",
      "  libpostproc    56.  5.100 / 56.  5.100\n",
      "[rawvideo @ 0x5571c940c5c0] Estimating duration from bitrate, this may be inaccurate\n",
      "Input #0, rawvideo, from 'test_vids/refs/waterfall.yuv':\n",
      "  Duration: 00:00:30.00, start: 0.000000, bitrate: 4976640 kb/s\n",
      "  Stream #0:0: Video: rawvideo (I420 / 0x30323449), yuv420p, 3840x2160, 4976640 kb/s, 50 tbr, 50 tbn\n"
     ]
    },
    {
     "name": "stderr",
     "output_type": "stream",
     "text": [
      "Input #1, mov,mp4,m4a,3gp,3g2,mj2, from 'test_vids/encoded/waterfall/waterfallAVC_cf14.mp4':\n",
      "  Metadata:\n",
      "    major_brand     : isom\n",
      "    minor_version   : 512\n",
      "    compatible_brands: isomiso2avc1mp41\n",
      "    encoder         : Lavf59.22.100\n",
      "  Duration: 00:00:30.00, start: 0.000000, bitrate: 252754 kb/s\n",
      "  Stream #1:0[0x1](und): Video: h264 (High) (avc1 / 0x31637661), yuv420p(progressive), 3840x2160, 252747 kb/s, 50 fps, 50 tbr, 12800 tbn (default)\n",
      "    Metadata:\n",
      "      handler_name    : VideoHandler\n",
      "      vendor_id       : [0][0][0][0]\n",
      "Stream mapping:\n",
      "  Stream #0:0 (rawvideo) -> setpts:default\n",
      "  Stream #1:0 (h264) -> scale:default\n",
      "  libvmaf:default -> Stream #0:0 (wrapped_avframe)\n",
      "Press [q] to stop, [?] for help\n",
      "Output #0, null, to 'pipe:':\n",
      "  Metadata:\n",
      "    encoder         : Lavf59.22.100\n",
      "  Stream #0:0: Video: wrapped_avframe, yuv420p(progressive), 3840x2160, q=2-31, 200 kb/s, 50 fps, 50 tbn\n",
      "    Metadata:\n",
      "      encoder         : Lavc59.26.100 wrapped_avframe\n",
      "frame= 1500 fps=2.5 q=-0.0 Lsize=N/A time=00:00:30.00 bitrate=N/A speed=0.0492x    \n",
      "video:691kB audio:0kB subtitle:0kB other streams:0kB global headers:0kB muxing overhead: unknown\n",
      "[Parsed_libvmaf_3 @ 0x5571cb59ec00] VMAF score: 99.996083\n",
      "ffmpeg version N-106635-g83e1a1de88 Copyright (c) 2000-2022 the FFmpeg developers\n",
      "  built with gcc 9 (Ubuntu 9.4.0-1ubuntu1~20.04.1)\n",
      "  configuration: --prefix=/home/ubuntu/ffmpeg_build --pkg-config-flags=--static --extra-cflags=-I/home/ubuntu/ffmpeg_build/include --extra-ldflags=-L/home/ubuntu/ffmpeg_build/lib --extra-libs='-lpthread -lm' --ld=g++ --bindir=/home/ubuntu/bin --enable-gpl --enable-gnutls --enable-libaom --enable-libass --enable-libfdk-aac --enable-libfreetype --enable-libmp3lame --enable-libopus --enable-libsvtav1 --enable-libdav1d --enable-libvorbis --enable-libvpx --enable-libx264 --enable-libx265 --enable-libvmaf --enable-version3 --enable-nonfree\n",
      "  libavutil      57. 24.101 / 57. 24.101\n",
      "  libavcodec     59. 26.100 / 59. 26.100\n",
      "  libavformat    59. 22.100 / 59. 22.100\n",
      "  libavdevice    59.  6.100 / 59.  6.100\n",
      "  libavfilter     8. 33.100 /  8. 33.100\n",
      "  libswscale      6.  6.100 /  6.  6.100\n",
      "  libswresample   4.  6.100 /  4.  6.100\n",
      "  libpostproc    56.  5.100 / 56.  5.100\n",
      "[rawvideo @ 0x55aa527895c0] Estimating duration from bitrate, this may be inaccurate\n",
      "Input #0, rawvideo, from 'test_vids/refs/waterfall.yuv':\n",
      "  Duration: 00:00:30.00, start: 0.000000, bitrate: 4976640 kb/s\n",
      "  Stream #0:0: Video: rawvideo (I420 / 0x30323449), yuv420p, 3840x2160, 4976640 kb/s, 50 tbr, 50 tbn\n",
      "Input #1, mov,mp4,m4a,3gp,3g2,mj2, from 'test_vids/encoded/waterfall/waterfallAVC_cf23.mp4':\n",
      "  Metadata:\n",
      "    major_brand     : isom\n",
      "    minor_version   : 512\n",
      "    compatible_brands: isomiso2avc1mp41\n",
      "    encoder         : Lavf59.22.100\n",
      "  Duration: 00:00:30.00, start: 0.000000, bitrate: 89084 kb/s\n",
      "  Stream #1:0[0x1](und): Video: h264 (High) (avc1 / 0x31637661), yuv420p(progressive), 3840x2160, 89079 kb/s, 50 fps, 50 tbr, 12800 tbn (default)\n",
      "    Metadata:\n",
      "      handler_name    : VideoHandler\n",
      "      vendor_id       : [0][0][0][0]\n",
      "Stream mapping:\n",
      "  Stream #0:0 (rawvideo) -> setpts:default\n",
      "  Stream #1:0 (h264) -> scale:default\n",
      "  libvmaf:default -> Stream #0:0 (wrapped_avframe)\n",
      "Press [q] to stop, [?] for help\n",
      "Output #0, null, to 'pipe:':\n",
      "  Metadata:\n",
      "    encoder         : Lavf59.22.100\n",
      "  Stream #0:0: Video: wrapped_avframe, yuv420p(progressive), 3840x2160, q=2-31, 200 kb/s, 50 fps, 50 tbn\n",
      "    Metadata:\n",
      "      encoder         : Lavc59.26.100 wrapped_avframe\n",
      "frame= 1500 fps=2.4 q=-0.0 Lsize=N/A time=00:00:30.00 bitrate=N/A speed=0.0482x    \n",
      "video:691kB audio:0kB subtitle:0kB other streams:0kB global headers:0kB muxing overhead: unknown\n",
      "[Parsed_libvmaf_3 @ 0x55aa5491b080] VMAF score: 90.881262\n",
      "ffmpeg version N-106635-g83e1a1de88 Copyright (c) 2000-2022 the FFmpeg developers\n",
      "  built with gcc 9 (Ubuntu 9.4.0-1ubuntu1~20.04.1)\n",
      "  configuration: --prefix=/home/ubuntu/ffmpeg_build --pkg-config-flags=--static --extra-cflags=-I/home/ubuntu/ffmpeg_build/include --extra-ldflags=-L/home/ubuntu/ffmpeg_build/lib --extra-libs='-lpthread -lm' --ld=g++ --bindir=/home/ubuntu/bin --enable-gpl --enable-gnutls --enable-libaom --enable-libass --enable-libfdk-aac --enable-libfreetype --enable-libmp3lame --enable-libopus --enable-libsvtav1 --enable-libdav1d --enable-libvorbis --enable-libvpx --enable-libx264 --enable-libx265 --enable-libvmaf --enable-version3 --enable-nonfree\n",
      "  libavutil      57. 24.101 / 57. 24.101\n",
      "  libavcodec     59. 26.100 / 59. 26.100\n",
      "  libavformat    59. 22.100 / 59. 22.100\n",
      "  libavdevice    59.  6.100 / 59.  6.100\n",
      "  libavfilter     8. 33.100 /  8. 33.100\n",
      "  libswscale      6.  6.100 /  6.  6.100\n",
      "  libswresample   4.  6.100 /  4.  6.100\n",
      "  libpostproc    56.  5.100 / 56.  5.100\n",
      "[rawvideo @ 0x562e19a275c0] Estimating duration from bitrate, this may be inaccurate\n",
      "Input #0, rawvideo, from 'test_vids/refs/waterfall.yuv':\n",
      "  Duration: 00:00:30.00, start: 0.000000, bitrate: 4976640 kb/s\n",
      "  Stream #0:0: Video: rawvideo (I420 / 0x30323449), yuv420p, 3840x2160, 4976640 kb/s, 50 tbr, 50 tbn\n",
      "Input #1, mov,mp4,m4a,3gp,3g2,mj2, from 'test_vids/encoded/waterfall/waterfallAVC_cf29.mp4':\n",
      "  Metadata:\n",
      "    major_brand     : isom\n",
      "    minor_version   : 512\n",
      "    compatible_brands: isomiso2avc1mp41\n",
      "    encoder         : Lavf59.22.100\n",
      "  Duration: 00:00:30.00, start: 0.000000, bitrate: 38050 kb/s\n",
      "  Stream #1:0[0x1](und): Video: h264 (High) (avc1 / 0x31637661), yuv420p(progressive), 3840x2160, 38045 kb/s, 50 fps, 50 tbr, 12800 tbn (default)\n",
      "    Metadata:\n",
      "      handler_name    : VideoHandler\n",
      "      vendor_id       : [0][0][0][0]\n",
      "Stream mapping:\n",
      "  Stream #0:0 (rawvideo) -> setpts:default\n",
      "  Stream #1:0 (h264) -> scale:default\n",
      "  libvmaf:default -> Stream #0:0 (wrapped_avframe)\n",
      "Press [q] to stop, [?] for help\n",
      "Output #0, null, to 'pipe:':\n",
      "  Metadata:\n",
      "    encoder         : Lavf59.22.100\n",
      "  Stream #0:0: Video: wrapped_avframe, yuv420p(progressive), 3840x2160, q=2-31, 200 kb/s, 50 fps, 50 tbn\n",
      "    Metadata:\n",
      "      encoder         : Lavc59.26.100 wrapped_avframe\n",
      "frame= 1500 fps=2.4 q=-0.0 Lsize=N/A time=00:00:30.00 bitrate=N/A speed=0.0485x    \n",
      "video:691kB audio:0kB subtitle:0kB other streams:0kB global headers:0kB muxing overhead: unknown\n",
      "[Parsed_libvmaf_3 @ 0x562e1bbb9280] VMAF score: 70.686730\n"
     ]
    }
   ],
   "source": [
    "import os\n",
    "import json\n",
    "import subprocess\n",
    "\n",
    "source = \"waterfall\"\n",
    "folder = \"test_vids/encoded/\" + source\n",
    "filepath = \"rd_results/rd_\" + source + \".json\"\n",
    "path_ref = \"test_vids/refs/\" + source + \".yuv\"\n",
    "\n",
    "for file in os.listdir(folder):\n",
    "    path_dist = os.path.join(folder, file)\n",
    "    c_vmaf = f\"ffmpeg -f rawvideo -r 50 -video_size 3840x2160 -i {path_ref} \\\n",
    "            -i {path_dist} \\\n",
    "            -lavfi \\\"[0:v]setpts=PTS-STARTPTS[ref];\\\n",
    "                     [1:v]scale=3840x2160:flags=bicubic, setpts=PTS-STARTPTS[dist];\\\n",
    "                     [dist][ref]libvmaf=feature=name=psnr:log_path=rd_results/vmaf_logs.json:log_fmt=json\\\" \\\n",
    "            -f null -\"\n",
    "    #|name=float_ssim|name=float_ms_ssim\n",
    "    subprocess.call(c_vmaf, shell=True)\n",
    "    \n",
    "    with open(\"rd_results/vmaf_logs.json\", 'r') as r:\n",
    "        i_data = json.load(r)\n",
    "\n",
    "    vmaf = i_data[\"pooled_metrics\"][\"vmaf\"][\"mean\"]\n",
    "    #ssim = i_data[\"pooled_metrics\"][\"float_ssim\"][\"mean\"]\n",
    "    #ms_ssim = i_data[\"pooled_metrics\"][\"float_ms_ssim\"][\"mean\"]\n",
    "    psnr = (6*i_data[\"pooled_metrics\"][\"psnr_y\"][\"mean\"] + i_data[\"pooled_metrics\"][\"psnr_cb\"][\"mean\"] + i_data[\"pooled_metrics\"][\"psnr_cr\"][\"mean\"])/8\n",
    "    command = \"ffprobe -v error -select_streams v:0 -show_entries format:stream -print_format json \" + path_dist\n",
    "    cout = subprocess.run(command.split(), stdout=subprocess.PIPE, stderr=subprocess.STDOUT).stdout\n",
    "    \n",
    "    dict = json.loads(cout)\n",
    "    file_name = str(dict['format']['filename']).split(\"/\")[-1]\n",
    "    codec = str(dict['streams'][0]['codec_name'])\n",
    "    width = int(dict['streams'][0]['width'])\n",
    "    height = int(dict['streams'][0]['height']) \n",
    "    fps = int(str(dict['streams'][0]['r_frame_rate']).split(\"/\")[0])\n",
    "    crf = int(file_name.split(\"_cf\")[1].split('.')[0])\n",
    "    bitrate = int(dict['format']['bit_rate']) \n",
    "\n",
    "    with open(filepath, 'r') as f:\n",
    "        o_data = json.load(f)\n",
    "    o_data.append({\n",
    "        \"video_content\": source,\n",
    "        \"file_name\": file_name,\n",
    "        \"codec\": codec,\n",
    "        \"width\": width,\n",
    "        \"height\": height,\n",
    "        \"framerate\": fps,\n",
    "        \"crf\": crf,\n",
    "        \"bitrate\": bitrate,\n",
    "        \"vmaf\": vmaf,\n",
    "        \"psnr\": psnr\n",
    "    })\n",
    "    with open(filepath, 'w') as w:\n",
    "        json.dump(o_data, w, indent=4, separators=(',',': '))"
   ]
  },
  {
   "cell_type": "code",
   "execution_count": null,
   "id": "14e4d380",
   "metadata": {},
   "outputs": [],
   "source": [
    "import os\n",
    "import json\n",
    "import subprocess\n",
    "\n",
    "folder = \"test_vids/encoded\"\n",
    "source = \"smithy\"\n",
    "filepath = \"rd_results/rd_\" + source + \".json\"\n",
    "path_ref = \"test_vids/refs/\" + source + \"_3840.yuv\"\n",
    "\n",
    "path_dist = \"test_vids/encoded/smithyAVC_1920_cf1.mp4\"\n",
    "c_vmaf = f\"ffmpeg -f rawvideo -r 50 -video_size 3840x2160 -i {path_ref} \\\n",
    "        -i {path_dist} \\\n",
    "        -lavfi \\\"[0:v]setpts=PTS-STARTPTS[ref];\\\n",
    "                [1:v]scale=3840x2160:flags=bicubic,setpts=PTS-STARTPTS[dist];\\\n",
    "                [dist][ref]libvmaf=feature=name=psnr:log_path=rd_results/vmaf_logs.json:log_fmt=json\\\" \\\n",
    "        -f null -\"\n",
    "#|name=float_ssim|name=float_ms_ssim\n",
    "subprocess.call(c_vmaf, shell=True)\n",
    "\n",
    "with open(\"rd_results/vmaf_logs.json\", 'r') as r:\n",
    "    i_data = json.load(r)\n",
    "\n",
    "vmaf = i_data[\"pooled_metrics\"][\"vmaf\"][\"mean\"]\n",
    "psnr = (6*i_data[\"pooled_metrics\"][\"psnr_y\"][\"mean\"] + i_data[\"pooled_metrics\"][\"psnr_cb\"][\"mean\"] + i_data[\"pooled_metrics\"][\"psnr_cr\"][\"mean\"])/8\n",
    "command = \"ffprobe -v error -select_streams v:0 -show_entries format:stream -print_format json \" + path_dist\n",
    "cout = subprocess.run(command.split(), stdout=subprocess.PIPE, stderr=subprocess.STDOUT).stdout\n",
    "\n",
    "dict = json.loads(cout)\n",
    "file_name = str(dict['format']['filename']).split(\"/\")[-1]\n",
    "codec = str(dict['streams'][0]['codec_name'])\n",
    "width = int(dict['streams'][0]['width'])\n",
    "height = int(dict['streams'][0]['height']) \n",
    "fps = int(str(dict['streams'][0]['r_frame_rate']).split(\"/\")[0])\n",
    "crf = int(file_name.split(\"_cf\")[1].split('.')[0])\n",
    "bitrate = int(dict['format']['bit_rate'])\n",
    "\n",
    "with open(filepath, 'r') as f:\n",
    "    o_data = json.load(f)\n",
    "o_data.append({\n",
    "    \"video_content\": source,\n",
    "    \"file_name\": file_name,\n",
    "    \"codec\": codec,\n",
    "    \"width\": width,\n",
    "    \"height\": height,\n",
    "    \"framerate\": fps,\n",
    "    \"crf\": crf,\n",
    "    \"bitrate\": bitrate,\n",
    "    \"vmaf\": vmaf,\n",
    "    \"psnr\": psnr\n",
    "})\n",
    "with open(filepath, 'w') as w:\n",
    "    json.dump(o_data, w, indent=4, separators=(',',': '))"
   ]
  },
  {
   "cell_type": "markdown",
   "id": "5da2580a",
   "metadata": {},
   "source": [
    "## Generate CSV file"
   ]
  },
  {
   "cell_type": "code",
   "execution_count": 8,
   "id": "18b69d93",
   "metadata": {},
   "outputs": [],
   "source": [
    "import csv\n",
    "import json\n",
    "\n",
    "source = \"waterfall\"\n",
    "data_list = []\n",
    "\n",
    "json_file = \"rd_results/rd_\" + source + \".json\"\n",
    "with open(json_file, 'r') as r:\n",
    "    i_data = json.load(r)\n",
    "for item in i_data:\n",
    "    v_entry = []\n",
    "    for meta, value in item.items():\n",
    "        v_entry.append(value)\n",
    "    data_list.append(v_entry)\n",
    "    \n",
    "header = [\"content\", \"file\", \"codec\", \"width\", \"height\", \"fps\", \"crf\", \"bitrate\", \"vmaf\", \"psnr\"]\n",
    "\n",
    "csv_file = \"rd_results/rd_\" + source + \".csv\"\n",
    "with open(csv_file, \"w\") as file:\n",
    "    csv_writer = csv.writer(file)\n",
    "    csv_writer.writerow(header)\n",
    "    for row in data_list:\n",
    "        csv_writer.writerow(row)"
   ]
  },
  {
   "cell_type": "code",
   "execution_count": null,
   "id": "e1e714a7",
   "metadata": {},
   "outputs": [],
   "source": []
  }
 ],
 "metadata": {
  "kernelspec": {
   "display_name": "Python 3 (ipykernel)",
   "language": "python",
   "name": "python3"
  },
  "language_info": {
   "codemirror_mode": {
    "name": "ipython",
    "version": 3
   },
   "file_extension": ".py",
   "mimetype": "text/x-python",
   "name": "python",
   "nbconvert_exporter": "python",
   "pygments_lexer": "ipython3",
   "version": "3.8.10"
  }
 },
 "nbformat": 4,
 "nbformat_minor": 5
}
